<svg width="80" height="80" viewBox="0 0 80 80" fill="none" xmlns="http://www.w3.org/2000/svg">
<path d="M6.85184 76.6666C4.90863 76.6666 3.33333 75.0826 3.33333 73.1287V6.87115C3.33333 4.91722 4.90863 3.33325 6.85184 3.33325H73.1482C75.0913 3.33325 76.6666 4.91722 76.6666 6.87115V73.1287C76.6666 75.0826 75.0913 76.6666 73.1482 76.6666C70.8025 76.6666 48.7037 76.6666 6.85184 76.6666Z" stroke="white" stroke-width="4" stroke-linecap="round" stroke-linejoin="round"/>
<path fill-rule="evenodd" clip-rule="evenodd" d="M64.4358 29.8117H57.179H56.3215C54.0715 29.8117 52.2475 31.6357 52.2475 33.8857V42.0363H64.4358L62.6507 54.2543H52.2475V76.6667H38.8442V54.2543H27.7778V42.0363H38.7012L38.8442 30.439L38.8042 26.2823C38.7478 20.4128 43.4603 15.6091 49.3297 15.5527C49.3637 15.5524 49.3977 15.5522 49.4318 15.5522H64.4358V29.8117Z" fill="white"/>
</svg>
