<svg width="80" height="80" viewBox="0 0 80 80" fill="none" xmlns="http://www.w3.org/2000/svg">
<path fill-rule="evenodd" clip-rule="evenodd" d="M24.8833 3.55325C28.7933 3.37325 30.04 3.33325 40 3.33325C49.96 3.33325 51.2067 3.37659 55.1133 3.55325C59.02 3.72992 61.6866 4.35325 64.02 5.25659C66.4633 6.17992 68.68 7.62325 70.5133 9.48992C72.38 11.3199 73.82 13.5333 74.74 15.9799C75.6467 18.3132 76.2666 20.9799 76.4466 24.8799C76.6266 28.7966 76.6666 30.0432 76.6666 39.9999C76.6666 49.9599 76.6233 51.2066 76.4466 55.1166C76.27 59.0166 75.6467 61.6832 74.74 64.0166C73.82 66.4636 72.3776 68.6806 70.5133 70.5132C68.68 72.3799 66.4633 73.8199 64.02 74.7399C61.6866 75.6466 59.02 76.2666 55.12 76.4466C51.2066 76.6266 49.96 76.6666 40 76.6666C30.04 76.6666 28.7933 76.6232 24.8833 76.4466C20.9833 76.2699 18.3167 75.6466 15.9833 74.7399C13.5364 73.8198 11.3194 72.3774 9.48666 70.5132C7.62126 68.6821 6.17771 66.4662 5.25666 64.0199C4.35333 61.6866 3.73333 59.0199 3.55333 55.1199C3.37333 51.2032 3.33333 49.9566 3.33333 39.9999C3.33333 30.0399 3.37666 28.7932 3.55333 24.8866C3.72999 20.9799 4.35333 18.3132 5.25666 15.9799C6.17907 13.5335 7.62372 11.3176 9.48999 9.48658C11.3201 7.62159 13.5349 6.17806 15.98 5.25659C18.3133 4.35325 20.98 3.73325 24.88 3.55325H24.8833ZM54.8167 10.1533C50.95 9.97658 49.79 9.93992 40 9.93992C30.21 9.93992 29.05 9.97658 25.1833 10.1533C21.6067 10.3166 19.6667 10.9133 18.3733 11.4166C16.6633 12.0833 15.44 12.8733 14.1567 14.1566C12.9401 15.3401 12.0039 16.7809 11.4167 18.3733C10.9133 19.6666 10.3167 21.6066 10.1533 25.1832C9.97666 29.0499 9.93999 30.2099 9.93999 39.9999C9.93999 49.7899 9.97666 50.9499 10.1533 54.8166C10.3167 58.3932 10.9133 60.3332 11.4167 61.6266C12.0033 63.2166 12.94 64.6599 14.1567 65.8432C15.34 67.0599 16.7833 67.9966 18.3733 68.5832C19.6667 69.0866 21.6067 69.6832 25.1833 69.8466C29.05 70.0232 30.2067 70.0599 40 70.0599C49.7933 70.0599 50.95 70.0232 54.8167 69.8466C58.3933 69.6832 60.3333 69.0866 61.6267 68.5832C63.3367 67.9166 64.56 67.1266 65.8433 65.8432C67.06 64.6599 67.9967 63.2166 68.5833 61.6266C69.0867 60.3332 69.6833 58.3932 69.8466 54.8166C70.0233 50.9499 70.06 49.7899 70.06 39.9999C70.06 30.2099 70.0233 29.0499 69.8466 25.1832C69.6833 21.6066 69.0867 19.6666 68.5833 18.3733C67.9167 16.6632 67.1267 15.4399 65.8433 14.1566C64.6597 12.9402 63.219 12.004 61.6267 11.4166C60.3333 10.9133 58.3933 10.3166 54.8167 10.1533ZM35.3167 51.3032C37.9322 52.392 40.8446 52.539 43.5564 51.719C46.2683 50.899 48.6113 49.163 50.1854 46.8074C51.7594 44.4518 52.4668 41.6228 52.1868 38.8036C51.9068 35.9844 50.6567 33.3498 48.65 31.3499C47.3708 30.0715 45.824 29.0926 44.1211 28.4837C42.4182 27.8749 40.6014 27.6511 38.8016 27.8286C37.0019 28.0062 35.2638 28.5805 33.7127 29.5103C32.1615 30.4402 30.8358 31.7024 29.831 33.2061C28.8262 34.7098 28.1673 36.4175 27.9017 38.2064C27.6361 39.9954 27.7705 41.8209 28.2951 43.5516C28.8198 45.2824 29.7216 46.8753 30.9357 48.2156C32.1499 49.556 33.6461 50.6105 35.3167 51.3032ZM26.6733 26.6732C28.4234 24.9232 30.5011 23.5349 32.7876 22.5878C35.0742 21.6406 37.525 21.1532 40 21.1532C42.475 21.1532 44.9257 21.6406 47.2123 22.5878C49.4989 23.5349 51.5766 24.9232 53.3267 26.6732C55.0767 28.4233 56.465 30.501 57.4121 32.7876C58.3593 35.0742 58.8467 37.5249 58.8467 39.9999C58.8467 42.4749 58.3593 44.9257 57.4121 47.2122C56.465 49.4988 55.0767 51.5765 53.3267 53.3266C49.7922 56.861 44.9985 58.8467 40 58.8467C35.0015 58.8467 30.2078 56.861 26.6733 53.3266C23.1389 49.7921 21.1532 44.9984 21.1532 39.9999C21.1532 35.0014 23.1389 30.2077 26.6733 26.6732ZM63.0267 23.9599C63.4603 23.5508 63.8075 23.0589 64.0477 22.5132C64.2878 21.9675 64.416 21.3791 64.4247 20.783C64.4334 20.1869 64.3224 19.5951 64.0983 19.0426C63.8741 18.4902 63.5414 17.9883 63.1199 17.5667C62.6983 17.1451 62.1964 16.8124 61.644 16.5883C61.0915 16.3642 60.4997 16.2532 59.9035 16.2619C59.3074 16.2705 58.7191 16.3988 58.1734 16.6389C57.6277 16.879 57.1358 17.2262 56.7267 17.6599C55.931 18.5033 55.4954 19.6237 55.5123 20.783C55.5292 21.9424 55.9973 23.0495 56.8172 23.8694C57.6371 24.6893 58.7442 25.1573 59.9035 25.1742C61.0629 25.1911 62.1832 24.7555 63.0267 23.9599Z" fill="white"/>
</svg>
