<svg width="105" height="37" viewBox="0 0 105 37" fill="none" xmlns="http://www.w3.org/2000/svg">
<path d="M0.15 0.999998H8.25V36H0.15V0.999998ZM69.2609 0.999998L57.8109 36H49.1109L41.4109 12.3L33.4609 36H24.8109L13.3109 0.999998H21.7109L29.6109 25.6L37.8609 0.999998H45.3609L53.3609 25.8L61.5109 0.999998H69.2609ZM90.0934 36.6C86.5267 36.6 83.2934 35.8333 80.3934 34.3C77.5267 32.7333 75.26 30.5833 73.5934 27.85C71.96 25.0833 71.1434 21.9667 71.1434 18.5C71.1434 15.0333 71.96 11.9333 73.5934 9.2C75.26 6.43333 77.5267 4.28333 80.3934 2.75C83.2934 1.18333 86.5434 0.399999 90.1434 0.399999C93.1767 0.399999 95.91 0.933333 98.3434 2C100.81 3.06667 102.877 4.6 104.543 6.6L99.3434 11.4C96.9767 8.66667 94.0434 7.3 90.5434 7.3C88.3767 7.3 86.4434 7.78333 84.7434 8.75C83.0434 9.68333 81.71 11 80.7434 12.7C79.81 14.4 79.3434 16.3333 79.3434 18.5C79.3434 20.6667 79.81 22.6 80.7434 24.3C81.71 26 83.0434 27.3333 84.7434 28.3C86.4434 29.2333 88.3767 29.7 90.5434 29.7C94.0434 29.7 96.9767 28.3167 99.3434 25.55L104.543 30.35C102.877 32.3833 100.81 33.9333 98.3434 35C95.8767 36.0667 93.1267 36.6 90.0934 36.6Z" fill="white"/>
</svg>
