<svg width="80" height="80" viewBox="0 0 80 80" fill="none" xmlns="http://www.w3.org/2000/svg">
<path d="M71.875 10.4063C71.271 9.88311 70.5361 9.53402 69.7489 9.3964C68.9617 9.25878 68.152 9.33782 67.4063 9.62506L9.71875 32.2813C8.83362 32.6242 8.08403 33.2457 7.58308 34.052C7.08213 34.8583 6.857 35.8056 6.94167 36.7511C7.02634 37.6965 7.4162 38.5888 8.05244 39.2933C8.68868 39.9977 9.53677 40.4761 10.4688 40.6563L25.625 43.6876V62.5001C25.626 63.362 25.8817 64.2045 26.3598 64.9217C26.8379 65.6389 27.5172 66.1989 28.3125 66.5313C28.8487 66.7498 29.421 66.8664 30 66.8751C30.5751 66.8786 31.145 66.767 31.6763 66.547C32.2076 66.327 32.6896 66.0029 33.0938 65.5938L41.625 57.0626L54.375 68.2813C55.1648 68.9895 56.1893 69.3792 57.25 69.3751C57.7071 69.3789 58.1615 69.3049 58.5938 69.1563C59.3154 68.9269 59.9639 68.5116 60.4741 67.952C60.9842 67.3925 61.3381 66.7085 61.5 65.9688L73.2813 14.6876C73.4573 13.9135 73.4195 13.1061 73.1717 12.352C72.924 11.5978 72.4758 10.9252 71.875 10.4063ZM10.7188 36.4063C10.6969 36.2746 10.7226 36.1394 10.7913 36.0249C10.86 35.9104 10.9672 35.824 11.0938 35.7813L59.375 16.8126L27.0625 40.1563L11.2188 36.9688C11.0806 36.9534 10.9531 36.8874 10.8608 36.7835C10.7685 36.6796 10.7179 36.5453 10.7188 36.4063ZM30.4375 62.9376C30.3508 63.0284 30.2376 63.0895 30.1141 63.1119C29.9906 63.1344 29.8631 63.1171 29.75 63.0626C29.6401 63.0146 29.5464 62.9361 29.4799 62.8364C29.4134 62.7367 29.377 62.6199 29.375 62.5001V46.2813L38.7813 54.5938L30.4375 62.9376ZM57.875 65.1251C57.8537 65.2335 57.8039 65.3343 57.7309 65.4172C57.6579 65.5001 57.5643 65.5622 57.4595 65.5971C57.3546 65.6321 57.2425 65.6386 57.1343 65.6161C57.0261 65.5935 56.9259 65.5427 56.8438 65.4688L30.5 42.2813L69.5625 14.0938L57.875 65.1251Z" fill="white"/>
</svg>
